<svg width="100" height="100" viewBox="0 0 100 100" fill="none" xmlns="http://www.w3.org/2000/svg">
<g id="icon/folder-open">
<path id="Vector" d="M25.0001 58.3333L31.0417 46.25C31.7374 44.8694 32.8034 43.7095 34.1206 42.9001C35.4377 42.0907 36.9541 41.6636 38.5001 41.6667H83.3334M83.3334 41.6667C84.6065 41.6644 85.8631 41.9539 87.0069 42.5128C88.1507 43.0718 89.1512 43.8853 89.9317 44.8911C90.7121 45.8968 91.2518 47.068 91.5092 48.3148C91.7667 49.5615 91.735 50.8507 91.4168 52.0833L84.9584 77.0833C84.4959 78.8745 83.4506 80.4609 81.987 81.5925C80.5235 82.7241 78.7251 83.3366 76.8751 83.3333H16.6667C14.4566 83.3333 12.337 82.4553 10.7742 80.8925C9.21135 79.3297 8.33337 77.2101 8.33337 75V20.8333C8.33337 16.25 12.0834 12.5 16.6667 12.5H33.0417C34.4143 12.5071 35.7638 12.8531 36.9705 13.5073C38.1771 14.1615 39.2035 15.1037 39.9584 16.25L43.3751 21.25C44.13 22.3963 45.1563 23.3385 46.363 23.9927C47.5696 24.6469 48.9192 24.9929 50.2917 25H75.0001C77.2102 25 79.3298 25.878 80.8927 27.4408C82.4555 29.0036 83.3334 31.1232 83.3334 33.3333V41.6667Z" stroke="#0029FF" stroke-width="5" stroke-linecap="round" stroke-linejoin="round"/>
</g>
</svg>
